<svg width="185" height="185" viewBox="0 0 185 185" fill="none" xmlns="http://www.w3.org/2000/svg">
<path d="M141 44H45V142H141L113.062 92.6724L141 44Z" fill="#017EF4"/>
<mask id="path-2-inside-1_1551_1901" fill="white">
<path fill-rule="evenodd" clip-rule="evenodd" d="M185 92.5C185 143.586 143.586 185 92.5 185C41.4137 185 0 143.586 0 92.5C0 41.4137 41.4137 0 92.5 0C143.586 0 185 41.4137 185 92.5ZM141 44H45V142H141L113.062 92.6724L141 44Z"/>
</mask>
<path fill-rule="evenodd" clip-rule="evenodd" d="M185 92.5C185 143.586 143.586 185 92.5 185C41.4137 185 0 143.586 0 92.5C0 41.4137 41.4137 0 92.5 0C143.586 0 185 41.4137 185 92.5ZM141 44H45V142H141L113.062 92.6724L141 44Z" fill="#F4F8FF"/>
<path d="M45 44V43.5H44.5V44H45ZM141 44L141.434 44.2489L141.864 43.5H141V44ZM45 142H44.5V142.5H45V142ZM141 142V142.5H141.858L141.435 141.754L141 142ZM113.062 92.6724L112.629 92.4235L112.487 92.6707L112.627 92.9188L113.062 92.6724ZM92.5 184.5C90.7678 184.5 89.0468 184.452 87.3382 184.358L87.283 185.356C89.0099 185.452 90.7493 185.5 92.5 185.5V184.5ZM77.0812 183.214C73.6598 182.636 70.3025 181.87 67.0205 180.926L66.7441 181.887C70.0621 182.842 73.4561 183.616 76.9149 184.2L77.0812 183.214ZM57.2836 177.519C54.0914 176.195 50.9898 174.697 47.9908 173.036L47.5063 173.911C50.538 175.59 53.6734 177.105 56.9006 178.443L57.2836 177.519ZM39.259 167.538C36.4503 165.542 33.7586 163.392 31.196 161.1L30.5294 161.846C33.1197 164.162 35.8405 166.335 38.6796 168.353L39.259 167.538ZM23.8998 153.804C21.6082 151.241 19.458 148.55 17.4616 145.741L16.6466 146.32C18.6646 149.159 20.838 151.88 23.1544 154.471L23.8998 153.804ZM11.9639 137.009C10.3029 134.01 8.80457 130.909 7.48081 127.716L6.55708 128.099C7.89533 131.327 9.41002 134.462 11.0891 137.494L11.9639 137.009ZM4.07377 117.979C3.12982 114.697 2.36363 111.34 1.78632 107.919L0.800258 108.085C1.38387 111.544 2.15843 114.938 3.11274 118.256L4.07377 117.979ZM0.642348 97.6617C0.547868 95.9532 0.5 94.2322 0.5 92.5H-0.5C-0.5 94.2506 -0.451623 95.9901 -0.356127 97.7169L0.642348 97.6617ZM0.5 92.5C0.5 90.7678 0.547868 89.0468 0.642349 87.3382L-0.356125 87.283C-0.451622 89.0099 -0.5 90.7493 -0.5 92.5H0.5ZM1.78632 77.0812C2.36364 73.6598 3.12982 70.3025 4.07378 67.0205L3.11274 66.7441C2.15844 70.0621 1.38387 73.4561 0.800261 76.9149L1.78632 77.0812ZM7.48081 57.2836C8.80458 54.0914 10.3029 50.9898 11.9639 47.9908L11.0891 47.5063C9.41003 50.538 7.89533 53.6734 6.55709 56.9006L7.48081 57.2836ZM17.4617 39.259C19.4581 36.4503 21.6082 33.7586 23.8998 31.196L23.1544 30.5294C20.838 33.1197 18.6646 35.8405 16.6466 38.6796L17.4617 39.259ZM31.196 23.8998C33.7586 21.6082 36.4504 19.458 39.259 17.4616L38.6796 16.6466C35.8406 18.6646 33.1197 20.838 30.5294 23.1544L31.196 23.8998ZM47.9908 11.9639C50.9899 10.3029 54.0914 8.80457 57.2837 7.48081L56.9006 6.55708C53.6735 7.89533 50.538 9.41002 47.5063 11.0891L47.9908 11.9639ZM67.0206 4.07377C70.3025 3.12982 73.6598 2.36363 77.0813 1.78632L76.9149 0.800258C73.4561 1.38387 70.0621 2.15843 66.7441 3.11274L67.0206 4.07377ZM87.3383 0.642348C89.0468 0.547868 90.7678 0.5 92.5 0.5V-0.5C90.7494 -0.5 89.0099 -0.451623 87.2831 -0.356127L87.3383 0.642348ZM92.5 0.5C94.2322 0.5 95.9532 0.547868 97.6618 0.642349L97.717 -0.356125C95.9901 -0.451622 94.2507 -0.5 92.5 -0.5V0.5ZM107.919 1.78632C111.34 2.36364 114.698 3.12982 117.979 4.07378L118.256 3.11274C114.938 2.15844 111.544 1.38387 108.085 0.800261L107.919 1.78632ZM127.716 7.48081C130.909 8.80458 134.01 10.3029 137.009 11.9639L137.494 11.0891C134.462 9.41003 131.327 7.89534 128.099 6.55709L127.716 7.48081ZM145.741 17.4617C148.55 19.4581 151.241 21.6082 153.804 23.8998L154.471 23.1544C151.88 20.838 149.159 18.6646 146.32 16.6466L145.741 17.4617ZM161.1 31.196C163.392 33.7586 165.542 36.4504 167.538 39.259L168.353 38.6796C166.335 35.8406 164.162 33.1197 161.846 30.5294L161.1 31.196ZM173.036 47.9908C174.697 50.9899 176.195 54.0914 177.519 57.2837L178.443 56.9006C177.105 53.6735 175.59 50.538 173.911 47.5063L173.036 47.9908ZM180.926 67.0206C181.87 70.3025 182.636 73.6598 183.214 77.0813L184.2 76.9149C183.616 73.4561 182.842 70.0621 181.887 66.7441L180.926 67.0206ZM184.358 87.3383C184.452 89.0468 184.5 90.7678 184.5 92.5H185.5C185.5 90.7494 185.452 89.0099 185.356 87.2831L184.358 87.3383ZM184.5 92.5C184.5 94.2322 184.452 95.9532 184.358 97.6618L185.356 97.717C185.452 95.9901 185.5 94.2507 185.5 92.5H184.5ZM183.214 107.919C182.636 111.34 181.87 114.698 180.926 117.979L181.887 118.256C182.842 114.938 183.616 111.544 184.2 108.085L183.214 107.919ZM177.519 127.716C176.195 130.909 174.697 134.01 173.036 137.009L173.911 137.494C175.59 134.462 177.105 131.327 178.443 128.099L177.519 127.716ZM167.538 145.741C165.542 148.55 163.392 151.241 161.1 153.804L161.846 154.471C164.162 151.88 166.335 149.159 168.353 146.32L167.538 145.741ZM153.804 161.1C151.241 163.392 148.55 165.542 145.741 167.538L146.32 168.353C149.159 166.335 151.88 164.162 154.471 161.846L153.804 161.1ZM137.009 173.036C134.01 174.697 130.909 176.195 127.716 177.519L128.099 178.443C131.327 177.105 134.462 175.59 137.494 173.911L137.009 173.036ZM117.979 180.926C114.697 181.87 111.34 182.636 107.919 183.214L108.085 184.2C111.544 183.616 114.938 182.842 118.256 181.887L117.979 180.926ZM97.6617 184.358C95.9532 184.452 94.2322 184.5 92.5 184.5V185.5C94.2506 185.5 95.9901 185.452 97.7169 185.356L97.6617 184.358ZM44.5 44V48.9H45.5V44H44.5ZM44.5 58.7V68.5H45.5V58.7H44.5ZM44.5 78.3V88.1H45.5V78.3H44.5ZM44.5 97.9V107.7H45.5V97.9H44.5ZM44.5 117.5V127.3H45.5V117.5H44.5ZM44.5 137.1V142H45.5V137.1H44.5ZM45 142.5H49.8V141.5H45V142.5ZM59.4 142.5H69V141.5H59.4V142.5ZM78.6 142.5H88.2V141.5H78.6V142.5ZM97.8 142.5H107.4V141.5H97.8V142.5ZM117 142.5H126.6V141.5H117V142.5ZM136.2 142.5H141V141.5H136.2V142.5ZM141.435 141.754L139.107 137.643L138.237 138.136L140.565 142.246L141.435 141.754ZM134.451 129.422L129.794 121.2L128.924 121.693L133.581 129.915L134.451 129.422ZM125.138 112.979L120.482 104.758L119.612 105.251L124.268 113.472L125.138 112.979ZM115.826 96.5366L113.498 92.426L112.627 92.9188L114.956 97.0294L115.826 96.5366ZM113.496 92.9213L115.824 88.8653L114.957 88.3675L112.629 92.4235L113.496 92.9213ZM120.481 80.7532L125.137 72.6411L124.269 72.1433L119.613 80.2554L120.481 80.7532ZM129.793 64.5291L134.449 56.417L133.582 55.9192L128.926 64.0313L129.793 64.5291ZM139.106 48.3049L141.434 44.2489L140.566 43.7511L138.238 47.8071L139.106 48.3049ZM141 43.5H136.2V44.5H141V43.5ZM126.6 43.5H117V44.5H126.6V43.5ZM107.4 43.5H97.8V44.5H107.4V43.5ZM88.2 43.5H78.6V44.5H88.2V43.5ZM69 43.5H59.4V44.5H69V43.5ZM49.8 43.5H45V44.5H49.8V43.5ZM45 44V43H44V44H45ZM141 44L141.867 44.4978L142.727 43H141V44ZM45 142H44V143H45V142ZM141 142V143H142.716L141.87 141.507L141 142ZM113.062 92.6724L112.195 92.1746L111.911 92.6691L112.192 93.1652L113.062 92.6724ZM92.5 184C90.777 184 89.0652 183.952 87.3659 183.858L87.2554 185.855C88.9915 185.951 90.7401 186 92.5 186V184ZM77.1644 182.721C73.7616 182.146 70.4227 181.384 67.1587 180.446L66.6059 182.368C69.9418 183.327 73.3542 184.106 76.8317 184.693L77.1644 182.721ZM57.4752 177.057C54.3004 175.741 51.2158 174.251 48.2331 172.599L47.2641 174.348C50.3121 176.036 53.4645 177.559 56.7091 178.905L57.4752 177.057ZM39.5486 167.131C36.7552 165.145 34.078 163.007 31.5293 160.727L30.1961 162.218C32.8002 164.547 35.5356 166.732 38.3899 168.761L39.5486 167.131ZM24.2725 153.471C21.9933 150.922 19.8548 148.245 17.8692 145.451L16.239 146.61C18.2679 149.464 20.4529 152.2 22.7817 154.804L24.2725 153.471ZM12.4013 136.767C10.7493 133.784 9.25919 130.7 7.94267 127.525L6.09522 128.291C7.4407 131.536 8.96358 134.688 10.6517 137.736L12.4013 136.767ZM4.55429 117.841C3.61551 114.577 2.85352 111.238 2.27935 107.836L0.307227 108.168C0.893989 111.646 1.67274 115.058 2.63222 118.394L4.55429 117.841ZM1.14158 97.6341C1.04761 95.9348 1 94.223 1 92.5H-1C-1 94.2599 -0.951368 96.0085 -0.855364 97.7445L1.14158 97.6341ZM1 92.5C1 90.777 1.04761 89.0652 1.14159 87.3659L-0.855362 87.2554C-0.951368 88.9915 -1 90.7401 -1 92.5H1ZM2.27935 77.1644C2.85352 73.7616 3.61552 70.4227 4.5543 67.1587L2.63222 66.6059C1.67275 69.9418 0.893993 73.3542 0.30723 76.8317L2.27935 77.1644ZM7.94268 57.4752C9.2592 54.3004 10.7494 51.2158 12.4013 48.2331L10.6517 47.2641C8.96359 50.3121 7.44071 53.4645 6.09522 56.7091L7.94268 57.4752ZM17.8692 39.5486C19.8548 36.7552 21.9933 34.078 24.2725 31.5293L22.7817 30.1961C20.4529 32.8002 18.2679 35.5356 16.2391 38.3899L17.8692 39.5486ZM31.5293 24.2725C34.0781 21.9933 36.7553 19.8548 39.5487 17.8692L38.3899 16.239C35.5357 18.2679 32.8002 20.4529 30.1961 22.7817L31.5293 24.2725ZM48.2331 12.4013C51.2158 10.7493 54.3004 9.25919 57.4752 7.94267L56.7091 6.09522C53.4645 7.4407 50.3121 8.96358 47.2641 10.6517L48.2331 12.4013ZM67.1588 4.55429C70.4227 3.61551 73.7616 2.85352 77.1645 2.27935L76.8317 0.307227C73.3542 0.893989 69.9419 1.67274 66.6059 2.63222L67.1588 4.55429ZM87.3659 1.14158C89.0652 1.04761 90.777 1 92.5 1V-1C90.7401 -1 88.9915 -0.951368 87.2555 -0.855364L87.3659 1.14158ZM92.5 1C94.223 1 95.9348 1.04761 97.6341 1.14159L97.7446 -0.855362C96.0085 -0.951368 94.2599 -1 92.5 -1V1ZM107.836 2.27935C111.238 2.85352 114.577 3.61552 117.841 4.5543L118.394 2.63222C115.058 1.67275 111.646 0.893993 108.168 0.30723L107.836 2.27935ZM127.525 7.94268C130.7 9.2592 133.784 10.7494 136.767 12.4013L137.736 10.6517C134.688 8.96359 131.536 7.44071 128.291 6.09523L127.525 7.94268ZM145.451 17.8692C148.245 19.8548 150.922 21.9933 153.471 24.2725L154.804 22.7817C152.2 20.4529 149.464 18.2679 146.61 16.2391L145.451 17.8692ZM160.727 31.5293C163.007 34.0781 165.145 36.7553 167.131 39.5487L168.761 38.3899C166.732 35.5357 164.547 32.8002 162.218 30.1961L160.727 31.5293ZM172.599 48.2331C174.251 51.2158 175.741 54.3004 177.057 57.4752L178.905 56.7091C177.559 53.4645 176.036 50.3121 174.348 47.2641L172.599 48.2331ZM180.446 67.1588C181.384 70.4227 182.146 73.7616 182.721 77.1645L184.693 76.8317C184.106 73.3542 183.327 69.9419 182.368 66.6059L180.446 67.1588ZM183.858 87.3659C183.952 89.0652 184 90.777 184 92.5H186C186 90.7401 185.951 88.9915 185.855 87.2555L183.858 87.3659ZM184 92.5C184 94.223 183.952 95.9348 183.858 97.6341L185.855 97.7446C185.951 96.0085 186 94.2599 186 92.5H184ZM182.721 107.836C182.146 111.238 181.384 114.577 180.446 117.841L182.368 118.394C183.327 115.058 184.106 111.646 184.693 108.168L182.721 107.836ZM177.057 127.525C175.741 130.7 174.251 133.784 172.599 136.767L174.348 137.736C176.036 134.688 177.559 131.536 178.905 128.291L177.057 127.525ZM167.131 145.451C165.145 148.245 163.007 150.922 160.727 153.471L162.218 154.804C164.547 152.2 166.732 149.464 168.761 146.61L167.131 145.451ZM153.471 160.727C150.922 163.007 148.245 165.145 145.451 167.131L146.61 168.761C149.464 166.732 152.2 164.547 154.804 162.218L153.471 160.727ZM136.767 172.599C133.784 174.251 130.7 175.741 127.525 177.057L128.291 178.905C131.536 177.559 134.688 176.036 137.736 174.348L136.767 172.599ZM117.841 180.446C114.577 181.384 111.238 182.146 107.836 182.721L108.168 184.693C111.646 184.106 115.058 183.327 118.394 182.368L117.841 180.446ZM97.6341 183.858C95.9348 183.952 94.223 184 92.5 184V186C94.2599 186 96.0085 185.951 97.7445 185.855L97.6341 183.858ZM44 44V48.9H46V44H44ZM44 58.7V68.5H46V58.7H44ZM44 78.3V88.1H46V78.3H44ZM44 97.9V107.7H46V97.9H44ZM44 117.5V127.3H46V117.5H44ZM44 137.1V142H46V137.1H44ZM45 143H49.8V141H45V143ZM59.4 143H69V141H59.4V143ZM78.6 143H88.2V141H78.6V143ZM97.8 143H107.4V141H97.8V143ZM117 143H126.6V141H117V143ZM136.2 143H141V141H136.2V143ZM141.87 141.507L139.542 137.397L137.802 138.382L140.13 142.493L141.87 141.507ZM134.886 129.175L130.23 120.954L128.489 121.94L133.145 130.161L134.886 129.175ZM125.573 112.733L120.917 104.511L119.177 105.497L123.833 113.718L125.573 112.733ZM116.261 96.2902L113.933 92.1796L112.192 93.1652L114.52 97.2758L116.261 96.2902ZM113.93 93.1702L116.258 89.1142L114.523 88.1185L112.195 92.1746L113.93 93.1702ZM120.914 81.0021L125.57 72.89L123.836 71.8944L119.18 80.0065L120.914 81.0021ZM130.227 64.778L134.883 56.6659L133.148 55.6703L128.492 63.7823L130.227 64.778ZM139.539 48.5538L141.867 44.4978L140.133 43.5022L137.805 47.5582L139.539 48.5538ZM141 43H136.2V45H141V43ZM126.6 43H117V45H126.6V43ZM107.4 43H97.8V45H107.4V43ZM88.2 43H78.6V45H88.2V43ZM69 43H59.4V45H69V43ZM49.8 43H45V45H49.8V43Z" fill="#BBD0FC" fill-opacity="0.5" mask="url(#path-2-inside-1_1551_1901)"/>
</svg>
